<svg width="69" height="82" viewBox="0 0 69 82" fill="none" xmlns="http://www.w3.org/2000/svg">
<path d="M64.5567 69.2896C64.1139 69.2896 63.6816 69.2219 63.2596 69.0864C62.8377 68.951 62.4496 68.7453 62.0954 68.4692C61.7464 68.1983 61.4547 67.8545 61.2203 67.4378L62.4939 66.7658C62.7023 67.1773 62.9966 67.4768 63.3768 67.6644C63.7623 67.8519 64.1582 67.9457 64.5645 67.9457C65.101 67.9457 65.5464 67.8467 65.9006 67.6487C66.2548 67.456 66.5153 67.1669 66.682 66.7814C66.8539 66.396 66.9372 65.9167 66.932 65.3437V63.0387H67.0961V56.866H68.3307V65.3594C68.3307 65.5886 68.3228 65.8099 68.3072 66.0235C68.2968 66.2371 68.2707 66.4481 68.2291 66.6564C68.1197 67.2555 67.9035 67.7477 67.5805 68.1332C67.2576 68.5239 66.8409 68.813 66.3304 69.0005C65.8199 69.1932 65.2287 69.2896 64.5567 69.2896ZM64.4551 65.5391C63.6685 65.5391 62.994 65.3437 62.4314 64.9531C61.8688 64.5572 61.4339 64.0232 61.1265 63.3513C60.8244 62.6793 60.6733 61.9214 60.6733 61.0775C60.6733 60.2337 60.8244 59.4757 61.1265 58.8038C61.4339 58.1318 61.8688 57.6031 62.4314 57.2176C62.994 56.8269 63.6659 56.6316 64.4473 56.6316C65.2443 56.6316 65.9136 56.8243 66.4554 57.2098C66.9971 57.5953 67.406 58.124 67.6821 58.796C67.9634 59.4679 68.1041 60.2284 68.1041 61.0775C68.1041 61.9162 67.9634 62.6741 67.6821 63.3513C67.406 64.0232 66.9971 64.5572 66.4554 64.9531C65.9136 65.3437 65.2469 65.5391 64.4551 65.5391ZM64.627 64.2655C65.1948 64.2655 65.661 64.13 66.0256 63.8592C66.3903 63.5831 66.6585 63.2054 66.8304 62.7262C67.0076 62.2417 67.0961 61.6922 67.0961 61.0775C67.0961 60.4524 67.0076 59.9029 66.8304 59.4289C66.6585 58.9496 66.3929 58.5772 66.0335 58.3115C65.674 58.0406 65.2182 57.9052 64.6661 57.9052C64.0931 57.9052 63.6191 58.0459 63.244 58.3271C62.8742 58.6084 62.5981 58.9887 62.4158 59.4679C62.2387 59.9472 62.1501 60.4837 62.1501 61.0775C62.1501 61.6766 62.2413 62.2183 62.4236 62.7027C62.6059 63.182 62.8794 63.5622 63.244 63.8435C63.6139 64.1248 64.0749 64.2655 64.627 64.2655Z" fill="white"/>
<path d="M57.7042 65.3047V61.0775C57.7042 60.6764 57.6677 60.291 57.5948 59.9211C57.5271 59.5513 57.4047 59.2205 57.2276 58.9288C57.0557 58.6319 56.8213 58.3975 56.5244 58.2256C56.2326 58.0537 55.8628 57.9677 55.4148 57.9677C55.0658 57.9677 54.7481 58.0276 54.4616 58.1474C54.1803 58.262 53.9381 58.4391 53.7349 58.6787C53.5318 58.9184 53.3729 59.2205 53.2583 59.5851C53.1489 59.9445 53.0942 60.3691 53.0942 60.8587L52.18 60.5775C52.18 59.7596 52.3259 59.059 52.6176 58.4756C52.9145 57.887 53.3286 57.4364 53.8599 57.1238C54.3965 56.8061 55.0268 56.6472 55.7508 56.6472C56.2978 56.6472 56.764 56.7332 57.1494 56.9051C57.5349 57.077 57.8553 57.3062 58.1105 57.5927C58.3658 57.8739 58.5663 58.1917 58.7122 58.5459C58.858 58.8949 58.9596 59.2517 59.0169 59.6164C59.0794 59.9758 59.1107 60.317 59.1107 60.64V65.3047H57.7042ZM51.6877 65.3047V56.866H52.9379V59.1241H53.0942V65.3047H51.6877Z" fill="white"/>
<path d="M47.9602 55.3735V53.9358H49.351V55.3735H47.9602ZM47.9602 65.3046V56.8659H49.351V65.3046H47.9602Z" fill="white"/>
<path d="M41.9057 65.3046L38.8428 56.866H40.2492L42.6167 63.531L44.9764 56.866H46.3907L43.3278 65.3046H41.9057Z" fill="white"/>
<path d="M34.1383 65.5391C33.2996 65.5391 32.5755 65.3489 31.9661 64.9687C31.3618 64.5884 30.8956 64.0623 30.5674 63.3903C30.2393 62.7184 30.0752 61.9474 30.0752 61.0775C30.0752 60.192 30.2419 59.4158 30.5753 58.7491C30.9086 58.0823 31.3801 57.564 31.9895 57.1942C32.599 56.8191 33.3152 56.6316 34.1383 56.6316C34.9821 56.6316 35.7088 56.8217 36.3182 57.202C36.9277 57.577 37.3939 58.1005 37.7169 58.7725C38.0451 59.4393 38.2091 60.2076 38.2091 61.0775C38.2091 61.9579 38.0451 62.734 37.7169 63.406C37.3887 64.0727 36.9199 64.5962 36.3104 64.9765C35.701 65.3516 34.9769 65.5391 34.1383 65.5391ZM34.1383 64.2186C35.0134 64.2186 35.6645 63.9269 36.0917 63.3435C36.5188 62.76 36.7324 62.0047 36.7324 61.0775C36.7324 60.1243 36.5162 59.3663 36.0838 58.8038C35.6515 58.236 35.003 57.9521 34.1383 57.9521C33.5496 57.9521 33.0652 58.0849 32.6849 58.3506C32.3047 58.6162 32.0208 58.9835 31.8333 59.4523C31.6457 59.9211 31.552 60.4629 31.552 61.0775C31.552 62.0256 31.7707 62.7861 32.2083 63.3591C32.6459 63.9321 33.2892 64.2186 34.1383 64.2186Z" fill="white"/>
<path d="M17.3281 65.3048V54.0532H18.5939L22.8445 63.0154L27.0717 54.0532H28.3531V65.297H27.0326V57.1083L23.2118 65.3048H22.4695L18.6486 57.1083V65.3048H17.3281Z" fill="white"/>
<path d="M10.4641 65.3048V54.0532H11.8549V65.3048H10.4641Z" fill="white"/>
<path d="M3.83647 65.3048V55.3737H0V54.0532H9.06376V55.3737H5.22729V65.3048H3.83647Z" fill="white"/>
<path d="M61.5735 81.7963C61.1207 81.7963 60.7023 81.7033 60.3182 81.5174C59.9342 81.3314 59.6067 81.0747 59.3358 80.7472C59.065 80.4197 58.8709 80.0437 58.7537 79.6192L59.6087 79.3888C59.6855 79.7041 59.825 79.977 60.0272 80.2075C60.2293 80.4339 60.4658 80.6097 60.7367 80.7351C61.0116 80.8604 61.2986 80.9231 61.5978 80.9231C61.9859 80.9231 62.3336 80.8301 62.6409 80.6441C62.9522 80.4541 63.1988 80.2034 63.3807 79.8921C63.5626 79.5808 63.6536 79.2392 63.6536 78.8673C63.6536 78.4832 63.5586 78.1375 63.3686 77.8303C63.1786 77.519 62.9279 77.2724 62.6166 77.0904C62.3053 76.9085 61.9657 76.8176 61.5978 76.8176C61.1854 76.8176 60.8297 76.9085 60.5305 77.0904C60.2313 77.2683 59.9928 77.4927 59.8149 77.7636L59.0023 77.424L59.2691 72.8818H63.9326V73.7369H59.6633L60.106 73.3185L59.8695 77.1935L59.6451 76.8964C59.8958 76.6093 60.199 76.385 60.5548 76.2233C60.9105 76.0615 61.2845 75.9807 61.6766 75.9807C62.2143 75.9807 62.6995 76.1101 63.1321 76.3688C63.5647 76.6235 63.9083 76.9692 64.163 77.4058C64.4177 77.8424 64.545 78.3296 64.545 78.8673C64.545 79.4009 64.4096 79.8901 64.1387 80.3348C63.8679 80.7755 63.5081 81.1293 63.0593 81.3961C62.6105 81.6629 62.1153 81.7963 61.5735 81.7963Z" fill="#999999"/>
<path d="M51.8367 81.6081L51.8427 80.7955L55.7906 77.2297C56.1302 76.9225 56.3546 76.6314 56.4637 76.3565C56.5769 76.0775 56.6335 75.7864 56.6335 75.4832C56.6335 75.1234 56.5486 74.7979 56.3788 74.5069C56.209 74.2158 55.9806 73.9853 55.6935 73.8155C55.4065 73.6417 55.0851 73.5548 54.7293 73.5548C54.3574 73.5548 54.0259 73.6437 53.7348 73.8216C53.4437 73.9995 53.2133 74.234 53.0435 74.5251C52.8777 74.8161 52.7968 75.1335 52.8009 75.4771H51.8912C51.8912 74.9475 52.0166 74.4725 52.2672 74.052C52.5179 73.6316 52.8575 73.3021 53.286 73.0636C53.7146 72.821 54.1997 72.6997 54.7415 72.6997C55.2711 72.6997 55.7461 72.825 56.1666 73.0757C56.5911 73.3223 56.9246 73.6579 57.1672 74.0824C57.4138 74.5028 57.5371 74.9718 57.5371 75.4893C57.5371 75.8531 57.4926 76.1745 57.4037 76.4535C57.3188 76.7284 57.1833 76.9851 56.9974 77.2237C56.8154 77.4581 56.583 77.7007 56.3 77.9514L52.7948 81.1169L52.6553 80.7531H57.5371V81.6081H51.8367Z" fill="#999999"/>
<path d="M47.5267 81.7961C46.989 81.7961 46.5039 81.6708 46.0713 81.4201C45.6428 81.1695 45.3032 80.8299 45.0525 80.4013C44.8018 79.9688 44.6765 79.4836 44.6765 78.9459V75.5499C44.6765 75.0122 44.8018 74.5291 45.0525 74.1006C45.3032 73.668 45.6428 73.3263 46.0713 73.0757C46.5039 72.825 46.989 72.6997 47.5267 72.6997C48.0644 72.6997 48.5475 72.825 48.9761 73.0757C49.4087 73.3263 49.7503 73.668 50.0009 74.1006C50.2516 74.5291 50.3769 75.0122 50.3769 75.5499V78.9459C50.3769 79.4836 50.2516 79.9688 50.0009 80.4013C49.7503 80.8299 49.4087 81.1695 48.9761 81.4201C48.5475 81.6708 48.0644 81.7961 47.5267 81.7961ZM47.5267 80.935C47.8865 80.935 48.214 80.8481 48.5091 80.6742C48.8043 80.4963 49.0387 80.2598 49.2126 79.9647C49.3864 79.6696 49.4734 79.3441 49.4734 78.9884V75.5075C49.4734 75.1477 49.3864 74.8202 49.2126 74.5251C49.0387 74.2299 48.8043 73.9954 48.5091 73.8216C48.214 73.6437 47.8865 73.5548 47.5267 73.5548C47.1669 73.5548 46.8394 73.6437 46.5443 73.8216C46.2492 73.9954 46.0147 74.2299 45.8409 74.5251C45.667 74.8202 45.5801 75.1477 45.5801 75.5075V78.9884C45.5801 79.3441 45.667 79.6696 45.8409 79.9647C46.0147 80.2598 46.2492 80.4963 46.5443 80.6742C46.8394 80.8481 47.1669 80.935 47.5267 80.935Z" fill="#999999"/>
<path d="M37.5171 81.6081L37.5232 80.7955L41.471 77.2297C41.8106 76.9225 42.035 76.6314 42.1441 76.3565C42.2573 76.0775 42.3139 75.7864 42.3139 75.4832C42.3139 75.1234 42.229 74.7979 42.0592 74.5069C41.8894 74.2158 41.661 73.9853 41.374 73.8155C41.0869 73.6417 40.7655 73.5548 40.4097 73.5548C40.0378 73.5548 39.7063 73.6437 39.4152 73.8216C39.1241 73.9995 38.8937 74.234 38.7239 74.5251C38.5581 74.8161 38.4773 75.1335 38.4813 75.4771H37.5717C37.5717 74.9475 37.697 74.4725 37.9477 74.052C38.1983 73.6316 38.5379 73.3021 38.9665 73.0636C39.395 72.821 39.8801 72.6997 40.4219 72.6997C40.9515 72.6997 41.4265 72.825 41.847 73.0757C42.2715 73.3223 42.605 73.6579 42.8476 74.0824C43.0942 74.5028 43.2175 74.9718 43.2175 75.4893C43.2175 75.8531 43.173 76.1745 43.0841 76.4535C42.9992 76.7284 42.8638 76.9851 42.6778 77.2237C42.4959 77.4581 42.2634 77.7007 41.9804 77.9514L38.4752 81.1169L38.3358 80.7531H43.2175V81.6081H37.5171Z" fill="#999999"/>
<path d="M31.008 81.7961C30.3693 81.7961 29.8154 81.6546 29.3464 81.3716C28.8815 81.0886 28.5197 80.6904 28.2609 80.1769C28.0022 79.6635 27.8728 79.0611 27.8728 78.3698C27.8728 77.6542 28.0002 77.0356 28.2549 76.5141C28.5096 75.9926 28.8673 75.5903 29.3282 75.3073C29.7932 75.0243 30.341 74.8828 30.9716 74.8828C31.6185 74.8828 32.1704 75.0324 32.6272 75.3316C33.084 75.6267 33.4297 76.0512 33.6642 76.6051C33.8987 77.1589 34.0058 77.8199 33.9856 78.5881H33.076V78.2727C33.0598 77.4237 32.8758 76.783 32.5241 76.3504C32.1764 75.9178 31.667 75.7015 30.9959 75.7015C30.2924 75.7015 29.7527 75.9299 29.3767 76.3868C29.0048 76.8436 28.8188 77.4945 28.8188 78.3394C28.8188 79.1642 29.0048 79.805 29.3767 80.2618C29.7527 80.7146 30.2844 80.941 30.9716 80.941C31.4406 80.941 31.8489 80.8339 32.1966 80.6196C32.5484 80.4013 32.8253 80.088 33.0274 79.6797L33.8582 80.0011C33.5995 80.5711 33.2174 81.0138 32.7121 81.3291C32.2108 81.6404 31.6428 81.7961 31.008 81.7961ZM28.5035 78.5881V77.8422H33.5065V78.5881H28.5035Z" fill="#999999"/>
<path d="M24.4154 81.7961C23.7564 81.7961 23.1985 81.6485 22.7416 81.3534C22.2848 81.0583 21.9371 80.652 21.6986 80.1345C21.4641 79.6129 21.3428 79.0146 21.3347 78.3394C21.3428 77.6522 21.4681 77.0498 21.7107 76.5323C21.9533 76.0108 22.303 75.6065 22.7598 75.3194C23.2167 75.0284 23.7705 74.8828 24.4214 74.8828C25.0845 74.8828 25.6606 75.0445 26.1498 75.368C26.643 75.6914 26.9806 76.1341 27.1625 76.696L26.2892 76.975C26.1356 76.5828 25.891 76.2796 25.5555 76.0653C25.2239 75.847 24.8439 75.7379 24.4154 75.7379C23.9343 75.7379 23.536 75.8491 23.2207 76.0714C22.9054 76.2897 22.6709 76.595 22.5173 76.9871C22.3636 77.3793 22.2848 77.83 22.2807 78.3394C22.2888 79.1238 22.4708 79.7544 22.8265 80.2315C23.1823 80.7045 23.7119 80.941 24.4154 80.941C24.8601 80.941 25.2381 80.84 25.5494 80.6378C25.8647 80.4316 26.1033 80.1325 26.265 79.7403L27.1625 80.0071C26.9199 80.5893 26.5641 81.034 26.0952 81.3413C25.6262 81.6445 25.0663 81.7961 24.4154 81.7961Z" fill="#999999"/>
<path d="M19.2631 81.6143V78.2729C19.2631 77.909 19.2287 77.5755 19.16 77.2723C19.0912 76.965 18.9801 76.6982 18.8264 76.4718C18.6768 76.2413 18.4808 76.0634 18.2382 75.9381C17.9997 75.8128 17.7086 75.7501 17.3649 75.7501C17.0496 75.7501 16.7706 75.8047 16.5281 75.9139C16.2895 76.023 16.0874 76.1807 15.9216 76.3869C15.7599 76.589 15.6366 76.8356 15.5517 77.1267C15.4668 77.4178 15.4244 77.7493 15.4244 78.1213L14.7937 77.9818C14.7937 77.3107 14.9109 76.7467 15.1454 76.2898C15.3799 75.833 15.7033 75.4873 16.1157 75.2529C16.5281 75.0184 17.0011 74.9011 17.5347 74.9011C17.9269 74.9011 18.2685 74.9618 18.5596 75.0831C18.8547 75.2043 19.1034 75.3681 19.3055 75.5743C19.5117 75.7804 19.6774 76.0169 19.8028 76.2838C19.9281 76.5466 20.0191 76.8275 20.0757 77.1267C20.1323 77.4218 20.1606 77.717 20.1606 78.0121V81.6143H19.2631ZM14.5269 81.6143V75.0649H15.3334V76.678H15.4244V81.6143H14.5269Z" fill="#999999"/>
<path d="M11.8232 73.8216V72.821H12.7147V73.8216H11.8232ZM11.8232 81.6142V75.0648H12.7147V81.6142H11.8232Z" fill="#999999"/>
<path d="M7.26047 81.7963C6.65 81.7963 6.10018 81.6952 5.61099 81.4931C5.12585 81.2869 4.72359 80.9958 4.4042 80.6198C4.08886 80.2438 3.88267 79.7971 3.78564 79.2796L4.69529 79.128C4.84083 79.694 5.14808 80.1387 5.61706 80.4621C6.08603 80.7815 6.64596 80.9412 7.29686 80.9412C7.7254 80.9412 8.10947 80.8745 8.44907 80.7411C8.78867 80.6036 9.0555 80.4096 9.24956 80.1589C9.44361 79.9083 9.54064 79.6111 9.54064 79.2675C9.54064 79.0411 9.50021 78.849 9.41936 78.6914C9.3385 78.5297 9.23136 78.3962 9.09795 78.2911C8.96454 78.186 8.81899 78.0991 8.66132 78.0304C8.50365 77.9576 8.35002 77.899 8.20044 77.8545L5.98698 77.1935C5.72015 77.1167 5.47353 77.0197 5.24714 76.9024C5.02074 76.7811 4.82264 76.6376 4.65284 76.4718C4.48708 76.3021 4.35771 76.104 4.26472 75.8776C4.17174 75.6512 4.12524 75.3924 4.12524 75.1013C4.12524 74.6081 4.25462 74.1816 4.51336 73.8218C4.7721 73.4619 5.12585 73.185 5.57461 72.991C6.02336 72.7969 6.53478 72.7019 7.10887 72.7059C7.69104 72.7059 8.21054 72.809 8.66739 73.0152C9.12827 73.2214 9.5083 73.5165 9.80747 73.9006C10.1066 74.2806 10.3047 74.7314 10.4018 75.2529L9.46787 75.4227C9.40723 75.0427 9.26775 74.7132 9.04944 74.4343C8.83112 74.1553 8.55217 73.941 8.21257 73.7914C7.87701 73.6378 7.50709 73.559 7.1028 73.5549C6.71065 73.5549 6.36094 73.6216 6.05368 73.7551C5.75047 73.8844 5.50992 74.0623 5.33203 74.2887C5.15415 74.5151 5.06521 74.7739 5.06521 75.0649C5.06521 75.3601 5.14606 75.5966 5.30778 75.7745C5.47353 75.9523 5.67568 76.0918 5.91421 76.1929C6.15678 76.294 6.39126 76.3768 6.61766 76.4415L8.32779 76.9449C8.50567 76.9934 8.71388 77.0641 8.95241 77.1571C9.19498 77.2461 9.42946 77.3754 9.65586 77.5452C9.88631 77.711 10.0763 77.9293 10.2259 78.2002C10.3755 78.471 10.4503 78.8147 10.4503 79.2311C10.4503 79.6354 10.3694 79.9972 10.2077 80.3166C10.05 80.636 9.82566 80.9048 9.53458 81.1231C9.24754 81.3415 8.90996 81.5072 8.52184 81.6204C8.13777 81.7377 7.71732 81.7963 7.26047 81.7963Z" fill="#999999"/>
<circle cx="34.1652" cy="24.7236" r="24.7236" fill="#C01F1F"/>
<path d="M56.0511 24.7237C56.0511 12.6367 46.2522 2.83852 34.1651 2.83852C22.0781 2.83855 12.28 12.6367 12.2799 24.7237C12.2799 36.8108 22.0781 46.6097 34.1651 46.6097V47.8146C21.4124 47.8146 11.0742 37.4765 11.0742 24.7237C11.0742 11.971 21.4124 1.63284 34.1651 1.63281C46.9179 1.63281 57.256 11.971 57.256 24.7237C57.256 37.4765 46.9179 47.8146 34.1651 47.8146V46.6097C46.2522 46.6097 56.0511 36.8108 56.0511 24.7237Z" fill="white"/>
<path d="M38.2595 14.4727C39.37 14.5859 40.2369 15.5238 40.2371 16.6641V18.8672H44.5515L44.6843 18.874C44.9931 18.907 45.281 19.0541 45.49 19.2881L49.989 24.3311C50.1946 24.5616 50.3082 24.8611 50.3083 25.1699V29.5674L50.2966 29.793C50.1915 30.8297 49.3674 31.6541 48.3308 31.7598L48.1052 31.7715H48.1013V31.7764C48.017 33.4392 46.6415 34.7615 44.9578 34.7617L44.7957 34.7578C43.1327 34.6735 41.8104 33.2981 41.8103 31.6143C41.8103 31.597 41.811 31.5797 41.8113 31.5625C41.811 31.5797 41.8093 31.597 41.8093 31.6143C41.8093 31.6669 41.8116 31.7195 41.8142 31.7715H31.7341V31.7764C31.6498 33.4394 30.2745 34.7617 28.5906 34.7617L28.4294 34.7578C26.7664 34.6736 25.4442 33.2982 25.4441 31.6143C25.4441 31.597 25.4448 31.5797 25.4451 31.5625C25.4448 31.5797 25.4431 31.597 25.4431 31.6143C25.4431 31.6669 25.4454 31.7195 25.448 31.7715H23.5554C22.3388 31.7713 21.3523 30.785 21.3523 29.5684V26.4209H22.5583V29.5684C22.5583 30.1193 23.0045 30.5662 23.5554 30.5664H25.6228C26.0545 29.3436 27.22 28.467 28.5906 28.4668C29.9613 28.4668 31.1274 29.3435 31.5593 30.5664H39.032V16.6641C39.0318 16.1133 38.5847 15.6673 38.0339 15.667H23.5554C23.0046 15.6671 22.5585 16.1132 22.5583 16.6641V18.2383H21.3523V16.6641C21.3525 15.4475 22.3389 14.4611 23.5554 14.4609H38.0339L38.2595 14.4727ZM28.5906 29.6729C27.5184 29.6731 26.6493 30.542 26.6492 31.6143C26.6493 32.6866 27.5183 33.5564 28.5906 33.5566C29.6631 33.5566 30.5329 32.6867 30.533 31.6143C30.5328 30.5418 29.663 29.6729 28.5906 29.6729ZM44.9578 29.6729C43.8854 29.673 43.0165 30.5419 43.0164 31.6143C43.0164 32.6866 43.8854 33.5565 44.9578 33.5566C46.0301 33.5564 46.8991 32.6866 46.8992 31.6143C46.899 30.542 46.03 29.6731 44.9578 29.6729ZM41.8259 31.3027C41.8229 31.3329 41.8202 31.3631 41.8181 31.3936C41.8202 31.3632 41.823 31.3329 41.8259 31.3027ZM41.863 31.0352C41.8584 31.0601 41.8544 31.0852 41.8503 31.1104C41.8544 31.0852 41.8584 31.0601 41.863 31.0352ZM40.238 30.5654H41.989C41.984 30.5796 41.9801 30.5942 41.9753 30.6084C42.395 29.3637 43.5715 28.4669 44.9578 28.4668C46.328 28.467 47.4934 29.3431 47.9255 30.5654H48.1052C48.6561 30.5652 49.1023 30.1183 49.1023 29.5674V25.4492H44.4851C42.9358 25.4489 41.6794 24.193 41.6794 22.6436V20.7764H42.8845V22.6436C42.8845 23.5273 43.6015 24.2438 44.4851 24.2441H48.2957L44.5906 20.0898C44.5806 20.0791 44.5661 20.0725 44.5515 20.0723H40.238V30.5654ZM27.0173 25.4502H17.575V24.2441H27.0173V25.4502ZM30.4792 22.9326H19.1492V21.7266H30.4792V22.9326ZM27.0173 20.4141H17.575V19.209H27.0173V20.4141Z" fill="white"/>
</svg>
