<svg width="30" height="28" viewBox="0 0 30 28" fill="none" xmlns="http://www.w3.org/2000/svg">
<path d="M20.7366 27.5666H8.79841C6.46562 27.5641 4.22915 26.6981 2.57968 25.1585C0.930213 23.6189 0.00246794 21.5314 0 19.3542L0 8.21185C0.00263245 6.03468 0.93045 3.9474 2.5799 2.40791C4.22935 0.86842 6.46573 0.00245695 8.79841 0L20.7366 0C23.0694 0.00230341 25.3059 0.868199 26.9555 2.4077C28.6051 3.94721 29.533 6.03458 29.5356 8.21185V19.3542C29.5332 21.5315 28.6053 23.6191 26.9557 25.1587C25.3061 26.6983 23.0695 27.5643 20.7366 27.5666ZM8.79841 2.77267C7.25336 2.77436 5.77212 3.34796 4.67961 4.36764C3.5871 5.38731 2.97253 6.76981 2.97072 8.21185V19.3542C2.97253 20.7962 3.58712 22.1786 4.67965 23.1982C5.77218 24.2178 7.25342 24.7912 8.79841 24.7928H20.7366C22.2815 24.7912 23.7627 24.2177 24.8552 23.1981C25.9476 22.1785 26.562 20.7961 26.5637 19.3542V8.21185C26.562 6.76986 25.9476 5.38737 24.8552 4.36767C23.7628 3.34798 22.2816 2.77436 20.7366 2.77267H8.79841ZM14.766 20.912C13.2553 20.9115 11.7787 20.493 10.5229 19.7093C9.26704 18.9256 8.28839 17.812 7.71065 16.5092C7.13291 15.2064 6.98204 13.773 7.2771 12.3902C7.57216 11.0074 8.29991 9.73735 9.36833 8.74057C10.4368 7.74378 11.7979 7.06506 13.2795 6.79023C14.7612 6.5154 16.297 6.65681 17.6926 7.19656C19.0882 7.73631 20.2809 8.65017 21.1201 9.82259C21.9592 10.995 22.407 12.3733 22.4069 13.7833C22.4049 15.6736 21.5994 17.486 20.1673 18.8226C18.7351 20.1592 16.7932 20.9108 14.7678 20.9125L14.766 20.912ZM14.766 9.42442C13.8428 9.42442 12.9403 9.67993 12.1727 10.1586C11.4051 10.6373 10.8068 11.3177 10.4535 12.1138C10.1002 12.9099 10.0078 13.7858 10.1879 14.6309C10.368 15.476 10.8126 16.2523 11.4654 16.8615C12.1182 17.4708 12.9499 17.8857 13.8553 18.0538C14.7608 18.2219 15.6993 18.1357 16.5522 17.8059C17.4051 17.4762 18.1341 16.9178 18.647 16.2014C19.1599 15.4849 19.4337 14.6426 19.4337 13.781C19.4317 12.6266 18.9395 11.5201 18.0649 10.7039C17.1903 9.8877 16.0046 9.42843 14.7678 9.42674L14.766 9.42442ZM22.4193 8.41317C22.0573 8.41305 21.7034 8.31273 21.4024 8.12489C21.1014 7.93705 20.8668 7.67013 20.7284 7.35787C20.59 7.04562 20.5538 6.70206 20.6246 6.37064C20.6953 6.03922 20.8698 5.73483 21.1259 5.49595C21.382 5.25708 21.7083 5.09445 22.0634 5.02864C22.4186 4.96282 22.7866 4.99677 23.1211 5.1262C23.4556 5.25563 23.7414 5.47472 23.9425 5.75576C24.1435 6.03681 24.2508 6.36719 24.2506 6.70512C24.2506 7.15824 24.058 7.59284 23.715 7.91351C23.372 8.23418 22.9067 8.41472 22.4212 8.41549L22.4193 8.41317Z" fill="white"/>
</svg>
