<svg width="21" height="21" viewBox="0 0 21 21" fill="none" xmlns="http://www.w3.org/2000/svg">
<path d="M16.6298 15.8651L13.2093 14.1549C13.0487 14.0747 12.867 14.0471 12.6899 14.076C12.5128 14.1048 12.3493 14.1887 12.2225 14.3156L10.7901 15.748C8.73179 15.417 5.48826 12.1744 5.15818 10.116L6.59053 8.6837C6.71747 8.55688 6.80131 8.39333 6.83016 8.21623C6.85901 8.03912 6.83142 7.85743 6.7513 7.69687L5.04102 4.27633C4.98504 4.16421 4.90509 4.06576 4.80684 3.98796C4.70859 3.91016 4.59445 3.85491 4.47248 3.82611C4.35051 3.79731 4.2237 3.79567 4.10103 3.82131C3.97836 3.84694 3.86282 3.89923 3.7626 3.97447L0.342054 6.53987C0.23585 6.61953 0.149649 6.72281 0.090279 6.84155C0.0309089 6.96029 0 7.09123 0 7.22398C0 15.4076 5.49852 20.9061 13.6822 20.9061C13.8149 20.9061 13.9459 20.8752 14.0646 20.8159C14.1833 20.7565 14.2866 20.6703 14.3663 20.5641L16.9317 17.1436C17.0069 17.0433 17.0592 16.9278 17.0848 16.8051C17.1105 16.6824 17.1088 16.5556 17.08 16.4337C17.0512 16.3117 16.996 16.1976 16.9182 16.0993C16.8404 16.0011 16.7419 15.9211 16.6298 15.8651Z" fill="white"/>
<path d="M10.8867 0.990723C12.8861 1.2679 19.1001 0.990723 19.1001 9.48178" stroke="white" stroke-width="2"/>
<path d="M10.0273 5.23584C11.2361 5.40342 14.993 5.23584 14.993 10.3694" stroke="white" stroke-width="2"/>
</svg>
